<svg width="22" height="23" viewBox="0 0 22 23" fill="none" xmlns="http://www.w3.org/2000/svg">
<path d="M15.7143 11.094C15.7143 10.7911 15.5915 10.5701 15.346 10.431L9.06027 6.50244C8.80655 6.33875 8.54055 6.33057 8.26228 6.47789C7.99219 6.62521 7.85714 6.85438 7.85714 7.16539V15.0225C7.85714 15.3335 7.99219 15.5627 8.26228 15.71C8.39323 15.7755 8.52009 15.8082 8.64286 15.8082C8.80655 15.8082 8.94568 15.7673 9.06027 15.6855L15.346 11.7569C15.5915 11.6178 15.7143 11.3968 15.7143 11.094ZM22 11.094C22 11.8797 21.9959 12.4935 21.9877 12.9355C21.9795 13.3774 21.9448 13.936 21.8834 14.6113C21.822 15.2865 21.7299 15.8901 21.6071 16.4221C21.4762 17.0196 21.1938 17.5229 20.76 17.9321C20.3263 18.3414 19.8188 18.5787 19.2377 18.6442C17.4208 18.8488 14.6749 18.9511 11 18.9511C7.32515 18.9511 4.57924 18.8488 2.76228 18.6442C2.18118 18.5787 1.67169 18.3414 1.23382 17.9321C0.795945 17.5229 0.511533 17.0196 0.38058 16.4221C0.265997 15.8901 0.178013 15.2865 0.116629 14.6113C0.0552455 13.936 0.0204613 13.3774 0.0122768 12.9355C0.00409226 12.4935 0 11.8797 0 11.094C0 10.3082 0.00409226 9.69441 0.0122768 9.25244C0.0204613 8.81048 0.0552455 8.25188 0.116629 7.57666C0.178013 6.90144 0.270089 6.29783 0.392857 5.76583C0.523809 5.16836 0.806176 4.66502 1.23996 4.25579C1.67374 3.84656 2.18118 3.60921 2.76228 3.54374C4.57924 3.33912 7.32515 3.23682 11 3.23682C14.6749 3.23682 17.4208 3.33912 19.2377 3.54374C19.8188 3.60921 20.3283 3.84656 20.7662 4.25579C21.2041 4.66502 21.4885 5.16836 21.6194 5.76583C21.734 6.29783 21.822 6.90144 21.8834 7.57666C21.9448 8.25188 21.9795 8.81048 21.9877 9.25244C21.9959 9.69441 22 10.3082 22 11.094Z" fill="black"/>
</svg>
