<svg width="23" height="24" viewBox="0 0 23 24" fill="none" xmlns="http://www.w3.org/2000/svg">
<path d="M11.4391 6.86816C8.59956 6.86816 6.24683 9.18033 6.24683 12.0604C6.24683 14.9405 8.559 17.2526 11.4391 17.2526C14.3191 17.2526 16.6313 14.8999 16.6313 12.0604C16.6313 9.2209 14.2786 6.86816 11.4391 6.86816ZM11.4391 15.3867C9.61367 15.3867 8.11279 13.8858 8.11279 12.0604C8.11279 10.235 9.61367 8.73412 11.4391 8.73412C13.2645 8.73412 14.7653 10.235 14.7653 12.0604C14.7653 13.8858 13.2645 15.3867 11.4391 15.3867Z" fill="black"/>
<path d="M16.8342 7.92305C17.4839 7.92305 18.0106 7.39637 18.0106 6.74668C18.0106 6.09699 17.4839 5.57031 16.8342 5.57031C16.1845 5.57031 15.6578 6.09699 15.6578 6.74668C15.6578 7.39637 16.1845 7.92305 16.8342 7.92305Z" fill="black"/>
<path d="M19.8765 3.70415C18.8218 2.60892 17.3209 2.04102 15.6172 2.04102H7.26098C3.73188 2.04102 1.37915 4.39375 1.37915 7.92285V16.2385C1.37915 17.9828 1.94705 19.4837 3.08285 20.5789C4.17809 21.6336 5.63841 22.1609 7.30155 22.1609H15.5767C17.3209 22.1609 18.7813 21.593 19.8359 20.5789C20.9312 19.5243 21.4991 18.0234 21.4991 16.2791V7.92285C21.4991 6.21915 20.9312 4.75883 19.8765 3.70415ZM19.7142 16.2791C19.7142 17.5366 19.268 18.5507 18.5379 19.2403C17.8077 19.9299 16.7936 20.295 15.5767 20.295H7.30155C6.08462 20.295 5.07051 19.9299 4.34035 19.2403C3.61019 18.5102 3.24511 17.496 3.24511 16.2385V7.92285C3.24511 6.70592 3.61019 5.69181 4.34035 4.96165C5.02994 4.27206 6.08462 3.90698 7.30155 3.90698H15.6578C16.8747 3.90698 17.8889 4.27206 18.619 5.00221C19.3086 5.73237 19.7142 6.74648 19.7142 7.92285V16.2791Z" fill="black"/>
</svg>
