<svg width="22" height="23" viewBox="0 0 22 23" fill="none" xmlns="http://www.w3.org/2000/svg">
<path d="M21.1406 4.79883C20.3929 5.12969 19.5937 5.35313 18.7515 5.45625C19.6109 4.94063 20.2726 4.12422 20.582 3.15312C19.7785 3.63008 18.889 3.97812 17.9394 4.16289C17.1789 3.35078 16.0961 2.84375 14.9015 2.84375C12.6027 2.84375 10.7422 4.70859 10.7422 7.00742C10.7422 7.33398 10.7765 7.65195 10.8496 7.95703C7.3906 7.78516 4.32263 6.12656 2.27302 3.6043C1.91638 4.21875 1.71013 4.93633 1.71013 5.69687C1.71013 7.14062 2.4449 8.4168 3.56209 9.16445C2.87888 9.14727 2.23435 8.9582 1.67576 8.64453C1.67576 8.66172 1.67576 8.67891 1.67576 8.69609C1.67576 10.7156 3.11091 12.3957 5.01443 12.7781C4.66638 12.8727 4.29685 12.9242 3.91873 12.9242C3.65232 12.9242 3.39021 12.8984 3.13669 12.8469C3.66521 14.5012 5.20349 15.7043 7.02537 15.7387C5.6031 16.8559 3.80701 17.5219 1.85623 17.5219C1.52107 17.5219 1.19021 17.5004 0.863647 17.4617C2.70271 18.6563 4.88982 19.3438 7.23591 19.3438C14.8929 19.3438 19.0781 12.9973 19.0781 7.49297C19.0781 7.3125 19.0738 7.13203 19.0652 6.95586C19.8773 6.36719 20.582 5.63242 21.1406 4.79883Z" fill="black"/>
</svg>
