<svg width="50" height="24" viewBox="0 0 50 24" fill="none" xmlns="http://www.w3.org/2000/svg">
<path d="M0 11.5938C0 5.24248 5.14873 0.09375 11.5 0.09375H38.5C44.8513 0.09375 50 5.24248 50 11.5938C50 17.945 44.8513 23.0938 38.5 23.0938H11.5C5.14873 23.0938 0 17.945 0 11.5938Z" fill="#F9A28F"/>
<path d="M21.1543 15.0938H19.543L16.4062 9.94824V15.0938H14.7949V7.27344H16.4062L19.5483 12.4297V7.27344H21.1543V15.0938ZM25.1343 15.2012C24.2821 15.2012 23.5874 14.9398 23.0503 14.417C22.5168 13.8942 22.25 13.1978 22.25 12.3276V12.1772C22.25 11.5936 22.3628 11.0726 22.5884 10.6143C22.814 10.1523 23.1326 9.79785 23.5444 9.55078C23.9598 9.30013 24.4325 9.1748 24.9624 9.1748C25.7573 9.1748 26.3822 9.42546 26.8369 9.92676C27.2952 10.4281 27.5244 11.1388 27.5244 12.0591V12.6929H23.8237C23.8739 13.0724 24.0243 13.3768 24.2749 13.606C24.5291 13.8351 24.8496 13.9497 25.2363 13.9497C25.8343 13.9497 26.3016 13.7331 26.6382 13.2998L27.4009 14.1538C27.1681 14.4832 26.853 14.741 26.4556 14.9272C26.0581 15.1099 25.6177 15.2012 25.1343 15.2012ZM24.957 10.4316C24.6491 10.4316 24.3984 10.5355 24.2051 10.7432C24.0153 10.9508 23.8936 11.248 23.8398 11.6348H25.999V11.5112C25.9919 11.1675 25.8988 10.9025 25.7197 10.7163C25.5407 10.5265 25.2865 10.4316 24.957 10.4316ZM33.4648 12.9829L34.2275 9.28223H35.7261L34.2437 15.0938H32.9438L31.8428 11.436L30.7417 15.0938H29.4473L27.9648 9.28223H29.4634L30.2207 12.9775L31.2842 9.28223H32.4067L33.4648 12.9829Z" fill="white"/>
</svg>
